<?xml version="1.0" encoding="UTF-8"?>
<svg width="100%" height="100%" viewBox="0 0 89 117" version="1.1" xmlns="http://www.w3.org/2000/svg" xmlns:xlink="http://www.w3.org/1999/xlink">
    <title>Just Otto</title>
    <g stroke="none" stroke-width="1" fill="none" fill-rule="evenodd">
        <g fill="#6e54d7" fill-rule="nonzero">
            <path d="M86.723,74.5785 C83.734,73.0276 80.445,74.8294 79.134,76.1522 C78.352,76.9504 77.3863,77.5662 76.3284,77.9539 C75.2705,78.342 74.1437,78.501 73.0168,78.41 C71.8899,78.319 70.8091,77.9768 69.8202,77.4294 C68.8313,76.882 68.0034,76.1066 67.3364,75.1943 C67.1755,74.9662 67.0375,74.7382 66.8995,74.4873 C77.0184,66.9154 83.527,54.8732 83.504,41.3259 C83.481,18.4276 64.5767,-0.1601 41.4873,-0.00242987056 C18.5359,0.1592 0,18.6557 0,41.4399 C0,56.2645 7.8651,69.2873 19.6628,76.6083 C19.6168,76.9732 19.5478,77.3382 19.4558,77.7031 C19.1798,78.798 18.6509,79.801 17.938,80.668 C17.2251,81.535 16.3282,82.219 15.2933,82.698 C15.0403,82.812 14.7873,82.926 14.5114,83.017 C14.4884,83.017 14.4884,83.017 14.4654,83.04 C14.3734,83.063 14.3044,83.086 14.2124,83.108 C13.1545,83.405 12.0276,83.496 10.9238,83.336 C9.084,83.063 4.0935,82.88 2.7597,86.256 C1.5408,89.357 4.0935,91.729 6.7382,92.55 C7.2212,92.71 7.7041,92.824 8.2101,92.938 C8.578,93.052 8.946,93.143 9.314,93.189 C10.2109,93.326 11.1308,93.394 12.0506,93.394 C13.7525,93.394 15.4313,93.143 17.0411,92.664 C17.0641,92.664 17.0641,92.664 17.0871,92.642 C17.1101,92.642 17.1101,92.642 17.1331,92.619 C17.3631,92.55 17.616,92.482 17.846,92.391 C20.0537,91.638 22.0775,90.452 23.8253,88.924 C24.2163,88.582 24.5612,88.217 24.9062,87.807 C25.1592,87.533 25.3891,87.282 25.6421,86.986 C25.7571,86.849 25.8491,86.712 25.9641,86.575 C25.9871,86.552 25.9871,86.529 26.0101,86.507 C26.539,85.822 27.022,85.115 27.4359,84.363 C27.4359,84.363 27.4359,84.34 27.4589,84.34 C27.6199,84.043 28.0798,84.226 27.9649,84.545 C27.9419,84.591 27.9419,84.614 27.9189,84.659 C26.861,87.898 25.3202,90.954 23.3194,93.736 C21.6866,95.994 19.8008,98.047 17.685,99.849 C15.4083,101.764 14.5574,105.003 16.0982,107.535 C17.639,110.066 20.9736,110.887 23.3194,109.063 C26.677,106.463 29.6207,103.384 32.1044,99.917 C34.9101,95.994 37.0488,91.638 38.4287,87.054 C38.5437,86.643 38.7047,86.073 38.8426,85.48 C38.9346,85.07 39.5556,85.138 39.5556,85.549 C39.5786,86.073 39.5786,86.598 39.5786,87.1 C39.5096,91.661 38.4977,96.154 36.6119,100.328 C35.462,102.859 33.9902,105.231 32.2654,107.398 C30.4026,109.701 30.2186,113.054 32.2194,115.243 C34.2202,117.433 37.6468,117.615 39.6016,115.38 C42.3842,112.187 44.684,108.607 46.4548,104.729 C48.9615,99.233 50.2954,93.303 50.3643,87.259 C50.3643,86.803 50.3643,86.347 50.3643,85.891 C50.3643,85.571 50.8243,85.503 50.9163,85.8 C51.0543,86.301 51.1923,86.78 51.2842,87.122 C52.0662,90.498 52.3191,93.964 52.0202,97.431 C51.7902,100.191 51.1923,102.928 50.2724,105.528 C49.2835,108.31 50.2264,111.549 52.8481,112.94 C55.4698,114.331 58.7584,113.373 59.8393,110.636 C61.4031,106.714 62.369,102.563 62.737,98.343 C63.0589,94.717 62.8979,91.091 62.323,87.533 C62.162,86.484 61.932,85.457 61.7021,84.431 C61.6331,84.18 61.955,83.975 62.162,84.157 C62.9899,84.864 63.8868,85.48 64.8297,86.028 C67.0835,87.305 69.5902,88.08 72.1889,88.286 C74.7876,88.491 77.3863,88.126 79.824,87.236 C82.262,86.324 84.47,84.91 86.286,83.063 C86.93,82.401 87.528,81.717 88.057,80.964 C89.69,78.798 89.184,75.8557 86.723,74.5785 Z M26.999,47.7803 C24.1473,48.168 21.5026,46.2066 21.1116,43.3557 C20.7207,40.5048 22.6985,37.9048 25.5731,37.5171 C28.4248,37.1294 31.0695,39.0908 31.4605,41.9417 C31.8514,44.7697 29.8736,47.3925 26.999,47.7803 Z M64.1858,42.6487 C61.3341,43.0364 58.6894,41.075 58.2985,38.2241 C57.9075,35.3961 59.8853,32.7732 62.76,32.3855 C65.6116,31.9978 68.2563,33.9592 68.6473,36.8101 C69.0382,39.661 67.0375,42.261 64.1858,42.6487 Z" id="Shape"></path>
        </g>
    </g>
</svg>
