<svg width="100%" height="100%" viewBox="0 0 489 153" fill="none" xmlns="http://www.w3.org/2000/svg">
<path d="M149.441 91.0953H134.286V83.2378H146.006C146.976 83.2378 147.539 82.7938 147.849 82.427C148.237 81.9637 148.431 81.3845 148.431 80.7667V78.2183C148.431 77.5812 148.237 77.0021 147.849 76.5387C147.539 76.1719 146.976 75.7279 146.006 75.7279H134.286V67.716H149.324C150.294 67.716 150.857 67.272 151.168 66.9052C151.556 66.4418 151.75 65.8626 151.75 65.2449V62.6965C151.75 62.0594 151.556 61.4802 151.168 61.0169C150.857 60.6501 150.294 60.2061 149.324 60.2061H128.503C127.805 60.2061 127.164 60.4956 126.679 61.0555C126.233 61.5575 126 62.1945 126 62.8703V95.9796C126 96.6554 126.233 97.2731 126.66 97.7944C127.145 98.3543 127.766 98.6632 128.484 98.6632H149.441C150.411 98.6632 150.973 98.2191 151.284 97.8523C151.672 97.389 151.866 96.8098 151.866 96.192V93.605C151.866 92.968 151.672 92.3888 151.284 91.9254C150.973 91.5393 150.411 91.0953 149.441 91.0953Z" fill="#6E54D7"/>
<path d="M196.709 73.2762C195.991 72.0214 194.904 70.9981 193.449 70.2452C192.033 69.4923 190.538 69.1255 189.005 69.1255C187.57 69.1255 186.328 69.2606 185.338 69.5502C183.107 70.2066 181.205 71.4615 179.672 73.2569C178.158 70.5541 175.5 69.1448 171.833 69.1448C170.746 69.1448 169.698 69.2992 168.689 69.5888C166.652 70.2066 164.944 71.307 163.586 72.8515C163.411 72.2723 163.217 71.7897 163.023 71.3843C162.518 70.3224 161.509 69.7433 160.171 69.7433H158.87C157.143 69.7433 156.076 70.8437 156.076 72.6005C156.076 72.8322 156.115 73.3148 156.406 75.0331C156.6 76.2107 156.697 78.373 156.697 81.4619V95.9412C156.697 96.6748 156.949 97.3312 157.434 97.8525C157.784 98.2193 158.444 98.6633 159.53 98.6633H161.975C163.081 98.6633 163.741 98.2193 164.071 97.8332C164.536 97.3312 164.769 96.6748 164.769 95.9605V83.3731C164.769 81.3267 165.351 79.6471 166.555 78.2957C167.641 77.0409 168.844 76.4424 170.222 76.4424C171.716 76.4424 172.298 77.0022 172.589 77.4463C173.152 78.2378 173.424 79.5313 173.424 81.3074V95.9798C173.424 96.7134 173.676 97.3698 174.161 97.8911C174.666 98.4317 175.403 98.7019 176.334 98.7019H178.663C179.769 98.7019 180.409 98.2579 180.759 97.8911C181.244 97.3698 181.496 96.7134 181.496 95.9798V83.3925C181.496 81.346 182.078 79.6857 183.301 78.2957C184.368 77.0409 185.571 76.4424 186.949 76.4424C188.443 76.4424 189.025 77.0022 189.316 77.4463C189.879 78.2378 190.15 79.5313 190.15 81.3074V95.9798C190.15 96.7134 190.403 97.3698 190.888 97.8911C191.392 98.4317 192.13 98.7019 193.061 98.7019H195.39C196.496 98.7019 197.136 98.2579 197.485 97.8911C197.97 97.3698 198.223 96.7134 198.223 95.9798V81.5005C198.223 79.9946 198.145 78.566 197.97 77.2532C197.815 75.786 197.388 74.4539 196.709 73.2762Z" fill="#6E54D7"/>
<path d="M225.196 87.1378C225.681 84.7825 225.933 82.7554 225.933 81.153C225.933 77.1953 224.614 74.0871 221.994 71.8669C219.802 70.0522 217.007 69.1255 213.709 69.1255C210.177 69.1255 207.286 69.8012 205.112 71.1333C203.715 72.002 202.997 73.0059 202.997 74.1257C202.997 74.7049 203.23 75.4192 203.754 76.4617C204.356 77.7166 205.112 78.3536 206.024 78.3536C206.51 78.3536 207.014 78.1992 207.557 77.9096C209.362 76.9443 211.167 76.4617 212.894 76.4617C214.737 76.4617 216.154 76.8864 217.143 77.7359C217.59 78.1606 217.939 78.6625 218.191 79.2996C218.424 79.9174 218.56 80.5352 218.579 81.1337C216.833 80.1877 214.834 79.7051 212.622 79.7051C209.614 79.7051 207.092 80.4001 205.112 81.7901C202.648 83.5469 201.406 86.1146 201.406 89.3965C201.406 92.3889 202.532 94.8601 204.763 96.7134C205.733 97.5243 206.878 98.1421 208.12 98.5668C209.362 98.9722 210.604 99.1846 211.846 99.1846C213.068 99.1846 214.194 99.0494 215.242 98.7598C217.163 98.2386 218.754 97.3312 220.015 96.0763C220.034 96.2308 220.054 96.3852 220.073 96.5011C220.093 96.8486 220.209 97.2154 220.403 97.6015C220.752 98.2579 221.47 98.5861 222.557 98.5861H224.847C226.302 98.5861 227.234 97.6401 227.234 96.1729V96.1343C227.195 93.9141 226.516 90.941 225.196 87.1378ZM217.59 89.2614C217.57 89.8213 217.163 90.4004 216.406 90.9989C215.998 91.3078 215.494 91.5781 214.931 91.7905C214.368 92.0028 213.612 92.0994 212.661 92.0994C211.846 92.0994 211.108 91.8484 210.468 91.3464C210.196 91.1341 209.983 90.8638 209.828 90.5356C209.673 90.1881 209.595 89.7827 209.595 89.3193C209.595 88.8946 209.673 88.5278 209.847 88.2382C210.041 87.91 210.41 87.5432 210.914 87.1571C211.361 86.8289 212.02 86.6744 212.913 86.6744C214.174 86.6744 215.28 86.9447 216.212 87.466C217.337 88.0645 217.531 88.7788 217.59 89.2614Z" fill="#6E54D7"/>
<path d="M234.781 67.5035C236.159 67.5035 237.343 67.0209 238.313 66.0749C239.303 65.1289 239.807 63.932 239.807 62.5033C239.807 61.789 239.671 61.1326 239.4 60.5342C238.527 58.565 236.935 57.5225 234.781 57.5225C233.365 57.5225 232.162 58.0051 231.211 58.9511C230.221 59.9357 229.736 61.1133 229.736 62.5033C229.736 63.932 230.241 65.1289 231.23 66.0556C232.201 67.0209 233.404 67.5035 234.781 67.5035Z" fill="#6E54D7"/>
<path d="M242.641 92.2537C242.097 91.0568 241.244 90.883 240.778 90.883C240.37 90.883 239.866 91.0182 239.051 91.385C238.934 91.4429 238.837 91.4622 238.779 91.4815C238.76 91.385 238.74 91.2305 238.74 90.9796V72.4267C238.74 71.7317 238.527 71.1139 238.139 70.5927C237.693 70.0135 237.033 69.7046 236.334 69.7046H233.152C232.453 69.7046 231.832 69.9942 231.367 70.5733C230.94 71.0753 230.707 71.7124 230.707 72.4267V90.8058C230.707 93.6438 231.25 95.6902 232.356 97.0609C232.939 97.7752 233.676 98.2771 234.51 98.586C235.286 98.8756 236.276 99.0108 237.499 99.0108C238.76 99.0108 240.041 98.6826 241.302 98.0455C242.893 97.2539 243.708 96.2693 243.708 95.1303C243.708 94.7249 243.611 94.3195 243.417 93.8947L242.641 92.2537Z" fill="#6E54D7"/>
<path d="M258.24 92.2537C257.677 91.0182 256.707 90.883 256.319 90.883C256.028 90.883 255.679 90.9603 254.592 91.3464C254.282 91.4622 254.126 91.4815 254.049 91.4815C254.029 91.4043 253.99 91.2498 253.99 90.9603V57.2138C253.99 56.5188 253.777 55.9203 253.389 55.4183C252.943 54.8392 252.283 54.5303 251.584 54.5303H248.402C247.703 54.5303 247.082 54.8199 246.617 55.399C246.19 55.901 245.957 56.5381 245.957 57.2331V90.8444C245.957 97.6208 249.469 99.0494 252.419 99.0494C254.631 99.0494 256.474 98.4509 257.871 97.2926L257.891 97.2733C258.454 96.7906 259.191 96.0377 259.191 95.0724C259.191 94.7249 259.113 94.3581 258.958 93.9913L258.24 92.2537Z" fill="#6E54D7"/>
<path d="M278.13 59.5884C272.619 59.5884 268.059 61.461 264.585 65.1291C262.936 66.8667 261.655 68.9517 260.763 71.3456C259.87 73.7202 259.424 76.0755 259.424 78.3922C259.424 80.651 259.618 82.6395 259.987 84.2998C260.355 85.9794 260.918 87.5818 261.617 89.049C262.334 90.5355 263.227 91.9256 264.294 93.1418C265.362 94.3774 266.584 95.4585 267.962 96.3659C269.339 97.2733 270.872 97.9683 272.541 98.4702C274.21 98.9722 276.228 99.2231 278.537 99.2231C280.904 99.2231 283.291 98.7019 285.6 97.6401C287.89 96.5975 289.889 95.1496 291.538 93.3542C295.011 89.5509 296.758 84.7824 296.758 79.1644C296.758 73.5078 295.147 68.8358 291.984 65.3029C288.647 61.519 283.99 59.5884 278.13 59.5884ZM270.892 70.5154C272.677 68.3532 275.044 67.3107 278.091 67.3107C281.254 67.3107 283.699 68.4304 285.503 70.7471C287.192 72.9094 288.026 75.7473 288.026 79.1451C288.026 82.7746 287.192 85.7477 285.523 87.9679C283.757 90.3232 281.312 91.4815 278.052 91.4815C274.812 91.4815 272.367 90.2846 270.601 87.7941C269.786 86.6358 269.165 85.3037 268.777 83.8171C268.369 82.3113 268.156 80.6703 268.156 78.9714C268.156 75.5156 269.087 72.6777 270.892 70.5154Z" fill="#6E54D7"/>
<path d="M345.329 91.5006C344.785 90.2071 343.873 90.0141 343.369 90.0141C342.767 90.0141 342.224 90.1685 341.719 90.4967C339.934 91.5971 338.925 91.8288 338.382 91.8288C337.431 91.8288 337.159 91.5585 337.159 90.5739V76.9248H342.67C344.3 76.9248 345.329 75.9788 345.329 74.4536V72.1755C345.329 70.6697 344.32 69.7237 342.67 69.7237H337.159V65.5537C337.159 64.82 336.946 64.2023 336.538 63.7003C336.073 63.1404 335.452 62.8315 334.734 62.8315H332.774C332.172 62.8315 330.736 63.0825 330.348 65.3606L329.572 70.1677L327.962 70.6311C327.166 70.7855 326.642 71.0558 326.273 71.4419C326.002 71.7315 325.672 72.2528 325.672 73.0829V74.4343C325.672 75.9788 326.681 76.9441 328.33 76.9441H329.165V90.8249C329.165 93.4505 329.921 95.5162 331.396 96.9448C332.095 97.6398 332.968 98.1804 333.958 98.5279C334.928 98.8561 336.15 99.0299 337.722 99.0299C339.294 99.0299 341.06 98.6051 342.961 97.7557C343.834 97.3696 344.572 96.9062 345.154 96.4043C345.93 95.7286 346.299 95.0722 346.299 94.3965C346.299 93.8945 346.163 93.354 345.891 92.7169L345.329 91.5006Z" fill="#6E54D7"/>
<path d="M360.677 69.1445C356.543 69.1445 353.07 70.5345 350.353 73.276C349.053 74.5888 348.006 76.1911 347.268 78.0252C346.531 79.8592 346.162 81.8863 346.162 84.0679C346.162 88.4889 347.501 92.1377 350.121 94.8984C352.779 97.7557 356.349 99.2036 360.677 99.2036C364.81 99.2036 368.283 97.7943 371 95.0143C373.775 92.1956 375.191 88.5275 375.191 84.1258C375.191 79.589 373.93 75.9402 371.465 73.2953C368.904 70.5345 365.275 69.1445 360.677 69.1445ZM365.469 89.8596C364.422 91.3076 362.869 92.0219 360.774 92.0219C358.717 92.0219 357.145 91.2883 356.02 89.8017C355.496 89.1067 355.088 88.2766 354.816 87.3692C354.545 86.4425 354.409 85.4386 354.409 84.4154C354.409 83.3729 354.525 82.3304 354.778 81.3265C355.011 80.3612 355.399 79.4924 355.903 78.7395C356.388 78.0059 357.029 77.446 357.805 77.002C358.562 76.5773 359.532 76.3649 360.696 76.3649C361.841 76.3649 362.83 76.5966 363.607 77.0406C365.858 78.3341 366.964 80.7087 366.964 84.261C366.944 86.6356 366.459 88.5275 365.469 89.8596Z" fill="#6E54D7"/>
<path d="M399.855 70.2643C398.341 69.5113 396.614 69.1445 394.713 69.1445C392.831 69.1445 391.104 69.492 389.59 70.187C388.251 70.8048 387.106 71.6543 386.117 72.7161C385.981 72.2914 385.806 71.886 385.632 71.5191C385.069 70.3608 384.04 69.7237 382.74 69.7237H381.304C380.528 69.7237 379.849 69.994 379.345 70.5152C378.84 71.0365 378.568 71.6543 378.568 72.3107C378.568 72.774 378.607 73.1215 378.665 73.4304C379.112 75.361 379.345 78.5271 379.345 82.8323V108.914C379.345 111.694 381.382 111.907 382.003 111.907H384.933C386.815 111.907 387.494 110.401 387.494 109.011V99.2808C387.494 98.4507 387.475 97.6785 387.456 96.9255C389.221 98.4507 391.433 99.2036 394.072 99.2036C397.876 99.2036 401 97.5433 403.328 94.2613C405.463 91.2689 406.55 87.6009 406.55 83.315C406.55 79.1835 405.56 75.8243 403.639 73.3146C402.649 72.0404 401.369 70.9979 399.855 70.2643ZM398.186 83.1991C398.186 85.6896 397.779 87.7553 396.983 89.3577C396.071 91.1917 394.79 92.0412 392.928 92.0412C391.433 92.0412 390.114 91.4041 388.911 90.1106C387.591 88.682 386.951 87.0217 386.951 85.0525V83.759C386.951 81.7705 387.572 80.0909 388.833 78.6044C390.095 77.1371 391.569 76.4228 393.316 76.4228C394.79 76.4228 395.935 77.0599 396.828 78.3727C397.74 79.6276 398.186 81.2686 398.186 83.1991Z" fill="#6E54D7"/>
<path d="M435.811 87.1763V72.446C435.811 71.7317 435.578 71.0946 435.151 70.5927C434.821 70.2066 434.181 69.7239 433.055 69.7239H430.572C429.64 69.7239 428.922 70.0135 428.418 70.5541C427.952 71.056 427.719 71.7124 427.719 72.4267V86.5006C427.719 87.9293 427.118 89.1841 425.876 90.3232C425.313 90.8251 424.653 91.2498 423.955 91.5587C423.276 91.8483 422.616 92.0028 422.014 92.0028C421.354 92.0028 420.811 91.9255 420.365 91.7711C418.851 91.2692 418.541 88.547 418.541 86.3655V72.4074C418.541 70.7278 417.493 69.6853 415.805 69.6853H413.205C412.157 69.6853 411.516 70.1293 411.167 70.5154C410.701 71.0174 410.449 71.6738 410.449 72.4074V86.6551C410.449 90.6514 411.264 93.7596 412.894 95.8832C414.582 98.1034 417.202 99.2231 420.675 99.2231C423.256 99.2231 425.449 98.6826 427.215 97.6401C428.146 97.0802 428.922 96.4238 429.582 95.6516C429.718 96.0763 429.834 96.4431 429.97 96.7713C430.455 97.9683 431.503 98.644 432.92 98.644H433.987C435.617 98.644 436.626 97.5821 436.626 95.8832C436.626 95.4971 436.587 95.1882 436.529 94.9179C436.044 92.9681 435.811 90.3811 435.811 87.1763Z" fill="#6E54D7"/>
<path d="M458.98 83.8172C458.146 82.987 456.651 82.1183 454.42 81.1337L451.839 80.0719C451.102 79.7823 450.461 79.4734 449.937 79.1838C449.491 78.9328 449.142 78.6818 448.928 78.4116C448.793 78.2571 448.715 77.9482 448.715 77.5428C448.715 77.427 448.715 77.1374 449.375 76.732C449.588 76.5968 449.86 76.5003 450.131 76.4231C450.345 76.3652 450.772 76.3072 451.49 76.3072C452.052 76.3072 452.673 76.4038 453.353 76.6161L453.391 76.6354C453.682 76.7127 453.974 76.8092 454.226 76.925C454.536 77.0602 454.886 77.2339 455.274 77.427C455.836 77.7166 456.477 77.8517 457.156 77.8517C457.835 77.8517 458.805 77.5235 459.523 75.9211C459.95 74.9558 460.183 74.0292 460.183 73.1797C460.183 72.5426 459.911 71.6352 458.65 70.8823C456.632 69.724 454.109 69.1255 451.179 69.1255C448.385 69.1255 445.979 69.8205 444.038 71.1912C441.749 72.7936 440.584 74.9944 440.584 77.7552C440.584 79.956 441.205 81.8094 442.428 83.2766C442.991 83.9523 443.689 84.5508 444.446 85.0721C445.164 85.5547 445.96 86.018 446.794 86.4428C447.628 86.8675 448.521 87.215 449.433 87.5239C450.248 87.7942 451.005 88.0838 451.703 88.3926C452.576 88.7788 453.605 89.3965 453.605 90.1688C453.605 90.7286 453.605 92.0414 450.228 92.0414C449.375 92.0414 448.521 91.887 447.667 91.5781C446.813 91.2692 446.154 90.9217 445.688 90.5549C444.912 89.9371 444.135 89.6282 443.379 89.6282C442.835 89.6282 441.826 89.8213 441.167 91.0568C440.856 91.6167 440.604 92.1187 440.429 92.5434C440.177 93.0839 440.061 93.7017 440.061 94.3774C440.061 95.2655 440.623 96.1343 441.768 96.9837C443.67 98.4316 446.483 99.1846 450.131 99.1846C453.76 99.1846 456.632 98.2386 458.669 96.3466C460.552 94.5898 461.503 92.3117 461.503 89.6089C461.444 87.4467 460.61 85.4775 458.98 83.8172Z" fill="#6E54D7"/>
<path d="M310.4 77.543C311.196 77.1376 312.05 76.9445 313.02 76.9445C314.048 76.9445 314.863 77.0411 315.484 77.2534C316.163 77.4851 316.784 77.7361 317.308 78.0064C317.871 78.2959 318.376 78.5662 318.783 78.7979C319.404 79.1647 319.947 79.3384 320.452 79.3384C321.422 79.3384 322.237 78.8751 322.78 78.0257L323.324 77.1183C323.654 76.5391 323.828 75.9406 323.828 75.3422C323.828 74.7051 323.595 74.068 323.11 73.4502C322.722 72.9289 322.198 72.4463 321.558 72.0409C320.976 71.6548 320.297 71.3072 319.559 70.9984C318.841 70.6895 318.085 70.4385 317.308 70.2261C313.602 69.2415 310.129 69.396 307.024 70.7088C303.492 72.1953 301.048 74.8595 299.728 78.6627C299.165 80.2844 298.855 82.0799 298.777 84.0298H298.758C298.758 84.1649 298.758 84.3 298.758 84.4352C298.758 84.5703 298.758 84.7055 298.758 84.8406H298.777C298.855 86.7905 299.165 88.5859 299.728 90.2076C301.048 94.0108 303.512 96.675 307.024 98.1616C308.79 98.8952 310.672 99.2813 312.651 99.2813C314.145 99.2813 315.717 99.0689 317.328 98.6442C318.085 98.4319 318.841 98.1616 319.579 97.872C320.316 97.5631 320.995 97.2156 321.577 96.8295C322.218 96.4048 322.742 95.9414 323.13 95.4202C323.595 94.8024 323.848 94.1653 323.848 93.5282C323.848 92.949 323.673 92.3505 323.324 91.7521L322.8 90.8833L322.78 90.8447C322.237 89.9952 321.403 89.5319 320.452 89.5319C319.947 89.5319 319.404 89.7057 318.783 90.0725C318.376 90.3041 317.871 90.5744 317.308 90.864C316.784 91.1343 316.163 91.3853 315.484 91.6169C314.863 91.8293 314.029 91.9258 313.02 91.9258C312.05 91.9258 311.196 91.7328 310.4 91.3273C308.285 90.2462 307.218 88.0067 307.121 84.4738C307.218 80.8636 308.285 78.6241 310.4 77.543Z" fill="#6E54D7"/>
<g clip-path="url(#clip0)">
<path d="M100.081 90.1047C97.562 88.7924 94.7907 90.317 93.6861 91.4362C93.0271 92.1117 92.2132 92.6327 91.3217 92.9608C90.4302 93.2889 89.4806 93.424 88.531 93.3468C87.5814 93.2696 86.6705 92.9801 85.8372 92.517C85.0039 92.0538 84.3062 91.3977 83.7442 90.6257C83.6085 90.4327 83.4923 90.2398 83.376 90.0275C91.9031 83.6205 97.3876 73.431 97.3682 61.9678C97.3488 42.5924 81.4186 26.8643 61.9612 26.9994C42.6202 27.1345 27 42.7854 27 62.0643C27 74.6082 33.6279 85.6275 43.5698 91.8222C43.531 92.131 43.4729 92.4398 43.3954 92.7485C43.1628 93.6749 42.7171 94.524 42.1163 95.2573C41.5155 95.9906 40.7597 96.5696 39.8876 96.9748C39.6744 97.0713 39.4612 97.1678 39.2287 97.245C39.2093 97.245 39.2093 97.245 39.1899 97.2643C39.1124 97.2836 39.0543 97.3029 38.9767 97.3222C38.0853 97.5731 37.1357 97.6503 36.2054 97.5152C34.655 97.2836 30.4496 97.1292 29.3256 99.9854C28.2984 102.61 30.4496 104.617 32.6783 105.312C33.0853 105.447 33.4922 105.543 33.9186 105.64C34.2287 105.736 34.5388 105.813 34.8488 105.852C35.6047 105.968 36.3798 106.026 37.155 106.026C38.5891 106.026 40.0039 105.813 41.3605 105.408C41.3798 105.408 41.3798 105.408 41.3992 105.389C41.4186 105.389 41.4186 105.389 41.438 105.37C41.6318 105.312 41.845 105.254 42.0388 105.177C43.8992 104.54 45.6047 103.536 47.0775 102.243C47.407 101.954 47.6977 101.645 47.9884 101.298C48.2016 101.066 48.3954 100.854 48.6085 100.603C48.7054 100.487 48.7829 100.371 48.8798 100.256C48.8992 100.236 48.8992 100.217 48.9186 100.198C49.3643 99.6187 49.7713 99.0205 50.1202 98.3836C50.1202 98.3836 50.1202 98.3643 50.1395 98.3643C50.2752 98.1134 50.6628 98.2678 50.5659 98.538C50.5465 98.5766 50.5465 98.5959 50.5271 98.6345C49.6357 101.375 48.3372 103.961 46.6512 106.315C45.2752 108.226 43.686 109.963 41.9031 111.487C39.9845 113.108 39.2674 115.849 40.5659 117.991C41.8643 120.133 44.6744 120.827 46.6512 119.284C49.4806 117.084 51.9612 114.478 54.0543 111.545C56.4186 108.226 58.2209 104.54 59.3837 100.661C59.4806 100.313 59.6163 99.831 59.7326 99.3292C59.8101 98.9819 60.3333 99.0398 60.3333 99.3871C60.3527 99.831 60.3527 100.275 60.3527 100.699C60.2946 104.559 59.4419 108.361 57.8527 111.892C56.8837 114.034 55.6434 116.042 54.1899 117.875C52.6202 119.824 52.4651 122.661 54.1512 124.513C55.8372 126.366 58.7248 126.52 60.3721 124.629C62.7171 121.927 64.655 118.898 66.1473 115.617C68.2597 110.966 69.3837 105.949 69.4419 100.834C69.4419 100.449 69.4419 100.063 69.4419 99.6766C69.4419 99.4064 69.8295 99.3485 69.907 99.5994C70.0233 100.024 70.1395 100.429 70.2171 100.719C70.876 103.575 71.0892 106.508 70.8372 109.442C70.6434 111.777 70.1395 114.092 69.3643 116.292C68.531 118.647 69.3256 121.387 71.5349 122.564C73.7442 123.742 76.5155 122.931 77.4264 120.615C78.7442 117.296 79.5581 113.784 79.8682 110.213C80.1395 107.145 80.0039 104.077 79.5194 101.066C79.3837 100.178 79.1899 99.3099 78.9961 98.4415C78.938 98.2292 79.2093 98.0555 79.3837 98.2099C80.0814 98.8082 80.8372 99.3292 81.6318 99.7924C83.531 100.873 85.6434 101.529 87.8333 101.703C90.0233 101.877 92.2132 101.568 94.2674 100.815C96.3217 100.043 98.1822 98.8468 99.7132 97.2836C100.256 96.724 100.76 96.145 101.205 95.5082C102.581 93.6748 102.155 91.1854 100.081 90.1047ZM49.7519 67.4292C47.3488 67.7573 45.1202 66.0976 44.7907 63.6854C44.4612 61.2731 46.1279 59.0731 48.5504 58.745C50.9535 58.4169 53.1822 60.0766 53.5116 62.4889C53.8411 64.8819 52.1744 67.1012 49.7519 67.4292ZM81.0892 63.0871C78.6861 63.4152 76.4574 61.7555 76.1279 59.3433C75.7985 56.9503 77.4651 54.731 79.8876 54.4029C82.2907 54.0748 84.5194 55.7345 84.8488 58.1468C85.1783 60.5591 83.4923 62.7591 81.0892 63.0871Z" fill="#6E54D7"/>
</g>
<defs>
<clipPath id="clip0">
<rect width="75" height="99" fill="white" transform="translate(27 27)"/>
</clipPath>
</defs>
</svg>
